<svg xmlns="http://www.w3.org/2000/svg" viewBox="0 0 768.52 106"><defs><style>.cls-1{fill:#1ceec0;}</style></defs><title>Asset 3</title><g id="Layer_2" data-name="Layer 2"><g id="Layer_1-2" data-name="Layer 1"><rect class="cls-1" x="504.52" width="264" height="106"/><path d="M10.9,76.44V9.33H0V.48H32.35V9.33H21.44V76.44h10.9v8.84H0V76.44Z"/><path d="M63.24,24.71V27.5a11,11,0,0,1,7.51-2.79h.73q8.48,0,12,4.85A13,13,0,0,1,94,24.71h.73q7.39,0,10.9,3.76t3.51,13.33V85.28H99.46V41.67q0-5-1-6.9t-4.66-1.94H93q-3.63,0-5,2.48a12.06,12.06,0,0,0-1.51,5.51V85.28H76.8V41.67q0-5.09-1.21-7t-4.36-1.88H70.5q-3.63,0-5.09,2.12a9,9,0,0,0-1.57,4.79V85.28H54.15V24.71Z"/><path d="M134.59,24.71v2.91a15.37,15.37,0,0,1,9.69-2.91h4.36q10.66,0,15.63,4.54t5,14.84V65.9q0,10.18-5,14.78t-15.57,4.6H135.19v20.59H124.9V24.71Zm2.54,11.21a6.64,6.64,0,0,0-1.94,4.54V76.2h14.66q4.48,0,6.78-2.06a7.4,7.4,0,0,0,2.3-5.81V41.67a7.41,7.41,0,0,0-2.3-5.81q-2.3-2.06-6.78-2.06h-6.78Q139.07,33.8,137.13,35.92Z"/><path d="M230,80.68q-5,4.61-15.57,4.6h-4q-10.54,0-15.57-4.6t-5-14.78V44.1q0-10.18,5-14.78t15.57-4.6h4q10.54,0,15.57,4.6t5,14.78V65.9Q235,76.08,230,80.68Zm-7.57-44.82q-2.3-2.06-6.78-2.06h-6.42q-4.48,0-6.78,2.06a7.4,7.4,0,0,0-2.3,5.81V68.32a7.39,7.39,0,0,0,2.3,5.81q2.3,2.06,6.78,2.06h6.42q4.48,0,6.78-2.06a7.4,7.4,0,0,0,2.3-5.81V41.67A7.41,7.41,0,0,0,222.42,35.86Z"/><path d="M291.65,81.53q-4.66,3.76-13.51,3.76H260.09V76.2h19.26a7.66,7.66,0,0,0,5-1.39,5,5,0,0,0,1.7-4.06V64.33q0-5.45-5.21-5.45h-4.48q-8.48,0-12.66-3.69t-4.18-11.69V40q0-8.11,4.6-11.69t13.57-3.57h16.23V33.8H276.45a7.77,7.77,0,0,0-4.85,1.39,4.8,4.8,0,0,0-1.82,4.06v4.36a5,5,0,0,0,1.64,4.12,6.4,6.4,0,0,0,4.18,1.33h4.12q8.11,0,12.36,3.94t4.24,11.69v5.45Q296.31,77.77,291.65,81.53Z"/><path d="M338.35,81.29q-3.27-4-3.27-10.54V33.8H323.57V24.71h11.51V10.18h10.3V24.71h17.69V33.8H345.38V71.35q0,2.67,1.33,3.76a6.43,6.43,0,0,0,4.12,1.09h12.24v9.09H347.8Q341.62,85.28,338.35,81.29Z"/><path d="M392.38,80.74q-5-4.54-5-14.84V44.1q0-10.42,4.48-14.9t14.9-4.48h5.69q8.6,0,13,4.79t4.42,14V59.24H397.71v9.09a7.39,7.39,0,0,0,2.3,5.81q2.3,2.06,6.78,2.06h19.26v9.09H408Q397.34,85.28,392.38,80.74Zm27.5-39.67a7,7,0,0,0-7.27-7.27h-7q-4.36,0-6.12,2a8.65,8.65,0,0,0-1.76,5.88v8.48h22.17Z"/><path d="M462.4,76.2V33.8h-8.84V24.71h18.54V28a14.81,14.81,0,0,1,9.69-3.27h12.48V34.4H480.57a6.92,6.92,0,0,0-5.81,2.48,8.83,8.83,0,0,0-2.06,5V76.2h13.2v9.09H453.56V76.2Z"/><path d="M553.92,84.31a9.65,9.65,0,0,1-3.21-2.67,8.86,8.86,0,0,1-7.39,3.63H532.54q-9.21,0-13.39-3.69T515,68.93V66.51q0-18.78,17.69-18.78h15V41.67a7.41,7.41,0,0,0-2.3-5.81q-2.3-2.06-6.78-2.06H519.82V24.71h17.57q10.54,0,15.57,4.6t5,14.78V73.17a3,3,0,0,0,1.39,2.73,8.91,8.91,0,0,0,4.66.91v8.48h-6.66A7.59,7.59,0,0,1,553.92,84.31Zm-7.21-9.81a8.73,8.73,0,0,0,1-4.36V56.82H532.54a7,7,0,0,0-7.27,7.27v6.06a6.29,6.29,0,0,0,1.45,4.6,6.29,6.29,0,0,0,4.6,1.45h10.78Q545.75,76.2,546.71,74.5Z"/><path d="M622.13,80.68q-5,4.61-15.57,4.6H582.81V.48h10.3V27.14a16,16,0,0,1,9.09-2.42h4.36q10.66,0,15.63,4.54t5,14.84V65.9Q627.15,76.08,622.13,80.68ZM595,35.92a6.64,6.64,0,0,0-1.94,4.54V76.2h14.66q4.48,0,6.78-2.06a7.4,7.4,0,0,0,2.3-5.81V41.67a7.41,7.41,0,0,0-2.3-5.81q-2.3-2.06-6.78-2.06H601Q597,33.8,595,35.92Z"/><path d="M667.07,82.38Q664,79.47,664,73.17V9.57H646.17V.48h28.1V72.56a3.52,3.52,0,0,0,1,2.79,5,5,0,0,0,3.27.85h16.11v9.09H674.28A10.19,10.19,0,0,1,667.07,82.38Z"/><path d="M719.46,80.74q-5-4.54-5-14.84V44.1q0-10.42,4.48-14.9t14.9-4.48h5.69q8.6,0,13,4.79t4.42,14V59.24H724.79v9.09a7.39,7.39,0,0,0,2.3,5.81q2.3,2.06,6.78,2.06h19.26v9.09H735.09Q724.43,85.28,719.46,80.74ZM747,41.07a7,7,0,0,0-7.27-7.27h-7q-4.36,0-6.12,2a8.65,8.65,0,0,0-1.76,5.88v8.48H747Z"/></g></g></svg>