<svg xmlns="http://www.w3.org/2000/svg" viewBox="0 0 780.87 106.75"><defs><style>.cls-1{fill:#dd9b4a;}</style></defs><title>Asset 2</title><g id="Layer_2" data-name="Layer 2"><g id="Layer_1-2" data-name="Layer 1"><rect class="cls-1" x="510.87" y="0.23" width="270" height="106"/><path d="M11,76.93V9H0V0H32.76V9h-11v68h11v9H0v-9Z"/><path d="M64,24.54v2.82a11.1,11.1,0,0,1,7.61-2.82h.74q8.59,0,12.15,4.91a13.16,13.16,0,0,1,10.67-4.91H96q7.48,0,11,3.8t3.56,13.5v44h-9.82V41.72q0-5-1-7t-4.72-2h-.74q-3.68,0-5.09,2.52a12.22,12.22,0,0,0-1.53,5.58v45H77.79V41.72q0-5.15-1.23-7.06t-4.42-1.9h-.74q-3.68,0-5.15,2.15a9.13,9.13,0,0,0-1.6,4.85V85.89H54.85V24.54Z"/><path d="M136.32,24.54v2.94a15.57,15.57,0,0,1,9.82-2.94h4.42q10.8,0,15.83,4.6t5,15V66.26q0,10.31-5.09,15t-15.77,4.66H136.93v20.86H126.5V24.54Zm2.58,11.35a6.72,6.72,0,0,0-2,4.6v36.2h14.85q4.54,0,6.87-2.08A7.49,7.49,0,0,0,161,68.71v-27a7.5,7.5,0,0,0-2.33-5.89q-2.33-2.09-6.87-2.09h-6.87Q140.86,33.74,138.89,35.89Z"/><path d="M232.94,81.23q-5.09,4.66-15.77,4.66h-4q-10.68,0-15.77-4.66t-5.09-15V44.17q0-10.31,5.09-15t15.77-4.66h4q10.68,0,15.77,4.66t5.09,15V66.26Q238,76.56,232.94,81.23Zm-7.67-45.4q-2.33-2.09-6.87-2.09h-6.5q-4.54,0-6.87,2.09a7.49,7.49,0,0,0-2.33,5.89v27A7.49,7.49,0,0,0,205,74.6q2.33,2.09,6.87,2.08h6.5q4.54,0,6.87-2.08a7.49,7.49,0,0,0,2.33-5.89v-27A7.5,7.5,0,0,0,225.27,35.83Z"/><path d="M295.39,82.09q-4.72,3.8-13.68,3.8H263.43v-9.2h19.51a7.76,7.76,0,0,0,5-1.41,5,5,0,0,0,1.72-4.11v-6.5q0-5.52-5.28-5.52h-4.54q-8.59,0-12.82-3.74t-4.23-11.84V40q0-8.22,4.66-11.84t13.74-3.62h16.44v9.2H280a7.87,7.87,0,0,0-4.91,1.41,4.87,4.87,0,0,0-1.84,4.11v4.42a5.06,5.06,0,0,0,1.66,4.17,6.48,6.48,0,0,0,4.23,1.35h4.17q8.22,0,12.52,4T300.12,65v5.52Q300.12,78.28,295.39,82.09Z"/><path d="M342.69,81.84q-3.31-4-3.31-10.67V33.74H327.73v-9.2h11.66V9.82h10.43V24.54h17.91v9.2H349.81v38q0,2.7,1.35,3.8a6.52,6.52,0,0,0,4.17,1.1h12.39v9.2H352.26Q346,85.89,342.69,81.84Z"/><path d="M397.42,81.29q-5-4.6-5-15V44.17q0-10.55,4.54-15.09T412,24.54h5.77q8.71,0,13.19,4.85t4.48,14.17v16H402.82v9.2a7.49,7.49,0,0,0,2.33,5.89q2.33,2.09,6.87,2.08h19.51v9.2H413.25Q402.45,85.89,397.42,81.29ZM425.27,41.1a7.13,7.13,0,0,0-7.36-7.36h-7.12q-4.42,0-6.2,2t-1.78,6v8.59h22.45Z"/><path d="M468.34,76.69V33.74h-9v-9.2h18.77v3.31A15,15,0,0,1,488,24.54h12.64v9.82H486.74a7,7,0,0,0-5.89,2.52A9,9,0,0,0,478.77,42V76.69h13.37v9.2H459.38v-9.2Z"/><path d="M523.18,33.74v-9.2h28.47V76.69h18.16v9.2H541.22V33.74ZM552.26,0V11H540.6V0Z"/><path d="M630.11,81.23q-5.09,4.66-15.77,4.66h-24V0h10.43V27a16.25,16.25,0,0,1,9.2-2.45h4.42q10.8,0,15.83,4.6t5,15V66.26Q635.21,76.56,630.11,81.23ZM602.69,35.89a6.72,6.72,0,0,0-2,4.6v36.2h14.85q4.54,0,6.87-2.08a7.5,7.5,0,0,0,2.33-5.89v-27a7.5,7.5,0,0,0-2.33-5.89q-2.33-2.09-6.87-2.09H608.7Q604.65,33.74,602.69,35.89Z"/><path d="M675.63,82.94q-3.13-2.94-3.13-9.32V9.2h-18V0h28.47V73a3.57,3.57,0,0,0,1,2.82,5,5,0,0,0,3.31.86h16.32v9.2H682.93A10.31,10.31,0,0,1,675.63,82.94Z"/><path d="M728.7,81.29q-5-4.6-5-15V44.17q0-10.55,4.54-15.09t15.09-4.54h5.77q8.71,0,13.19,4.85t4.48,14.17v16H734.1v9.2a7.49,7.49,0,0,0,2.33,5.89q2.33,2.09,6.87,2.08h19.51v9.2H744.53Q733.73,85.89,728.7,81.29ZM756.55,41.1a7.13,7.13,0,0,0-7.36-7.36h-7.12q-4.42,0-6.2,2t-1.78,6v8.59h22.45Z"/></g></g></svg>